<?xml version="1.0" standalone="no"?>
<!DOCTYPE svg PUBLIC "-//W3C//DTD SVG 20010904//EN"
 "http://www.w3.org/TR/2001/REC-SVG-20010904/DTD/svg10.dtd">
<svg version="1.0" xmlns="http://www.w3.org/2000/svg"
 width="481.000000pt" height="218.000000pt" viewBox="0 0 381.000000 218.000000"
 preserveAspectRatio="xMidYMid meet">

<g transform="translate(0.000000,218.000000) scale(0.100000,-0.100000)"
fill="#000000" stroke="none">
<path d="M1770 2076 c-107 -30 -241 -121 -275 -187 -30 -57 -11 -134 40 -157
14 -7 44 -12 67 -12 39 0 46 6 218 177 99 97 177 180 174 185 -8 12 -173 8
-224 -6z"/>
<path d="M2108 1984 c-50 -26 -72 -98 -47 -147 14 -27 349 -360 356 -354 2 3
7 30 10 60 12 115 -44 274 -133 375 -71 80 -125 100 -186 66z"/>
<path d="M1815 1771 c-133 -61 -173 -229 -80 -338 90 -105 232 -111 326 -13
108 110 77 279 -62 351 -49 24 -131 25 -184 0z m135 -116 c36 -19 50 -43 50
-88 0 -39 -35 -81 -75 -91 -53 -13 -115 36 -115 92 0 43 14 68 48 86 35 19 56
20 92 1z"/>
<path d="M1386 1608 c-9 -73 16 -194 56 -276 40 -81 130 -176 174 -185 95 -19
174 74 133 156 -12 23 -339 357 -350 357 -4 0 -10 -24 -13 -52z"/>
<path d="M1989 1243 c-98 -97 -176 -180 -173 -185 9 -14 156 -9 217 7 107 28
237 111 278 178 33 55 21 124 -31 164 -8 7 -37 13 -64 13 l-50 0 -177 -177z"/>
<path d="M1620 976 c0 -25 276 -360 290 -351 29 18 286 343 278 351 -2 1 -37
-10 -78 -24 -67 -24 -90 -26 -205 -26 -126 0 -170 8 -267 49 -10 4 -18 4 -18
1z"/>
<path d="M102 224 l3 -139 25 0 c20 0 26 6 28 28 5 40 51 38 74 -3 16 -28 46
-39 61 -24 3 4 -1 20 -9 36 -14 27 -14 31 11 59 36 43 34 98 -4 141 -28 31
-33 33 -110 36 l-82 4 3 -138z m144 61 c42 -42 12 -95 -52 -95 -30 0 -32 2
-39 46 -7 52 5 74 42 74 13 0 35 -11 49 -25z"/>
<path d="M495 341 c-45 -27 -67 -67 -68 -121 -2 -158 224 -194 274 -43 39 120
-99 230 -206 164z m114 -46 c34 -17 54 -66 41 -99 -25 -66 -102 -82 -147 -30
-34 38 -31 86 8 118 35 30 58 32 98 11z"/>
<path d="M873 341 c-41 -26 -55 -73 -51 -176 3 -79 3 -80 31 -83 24 -3 27 0
27 27 0 31 0 31 55 31 54 0 55 0 55 -30 0 -25 4 -30 25 -30 l25 0 0 105 c0
100 -1 106 -27 135 -37 41 -94 50 -140 21z m99 -58 c11 -10 18 -30 18 -55 l0
-38 -55 0 -55 0 0 43 c0 24 5 48 12 55 17 17 58 15 80 -5z"/>
<path d="M1170 219 l0 -142 65 5 c106 9 160 62 152 151 -7 80 -67 127 -162
127 l-55 0 0 -141z m147 58 c7 -7 15 -26 19 -43 8 -41 -35 -94 -76 -94 -28 0
-28 1 -32 71 -4 89 2 100 44 88 18 -5 38 -15 45 -22z"/>
<path d="M1531 335 c-19 -25 -21 -40 -21 -141 l0 -114 25 0 25 0 0 104 c0 80
3 106 15 116 12 10 18 10 30 0 12 -10 15 -36 15 -116 l0 -104 25 0 25 0 0 104
c0 80 3 106 15 116 12 10 18 10 30 0 12 -10 15 -36 15 -116 l0 -104 25 0 25 0
0 115 c0 111 -1 117 -26 141 -21 22 -31 25 -62 20 -45 -7 -46 -7 -98 0 -36 5
-44 3 -63 -21z"/>
<path d="M1968 344 c-45 -24 -58 -62 -58 -169 0 -94 0 -95 24 -95 19 0 25 6
28 28 3 26 5 27 58 27 53 0 55 -1 58 -28 3 -21 9 -27 28 -27 24 0 24 1 24 95
0 109 -13 146 -60 170 -36 19 -67 19 -102 -1z m97 -68 c9 -14 15 -37 13 -53
-3 -27 -5 -28 -58 -28 -53 0 -55 1 -58 28 -8 67 68 106 103 53z"/>
<path d="M2260 220 l0 -140 24 0 c19 0 25 6 28 28 3 24 8 28 49 32 89 11 132
66 110 141 -17 57 -57 79 -143 79 l-68 0 0 -140z m147 68 c7 -6 13 -23 13 -39
0 -35 -36 -62 -77 -57 -25 3 -28 7 -31 47 -2 24 -1 49 2 56 5 15 73 10 93 -7z"/>
<path d="M2780 219 l0 -140 28 3 c21 2 27 8 27 28 0 23 5 25 53 30 65 7 101
39 109 97 11 80 -42 123 -149 123 l-68 0 0 -141z m155 58 c8 -12 15 -27 15
-34 0 -25 -39 -53 -75 -53 l-35 0 0 54 c0 32 5 56 12 58 24 8 69 -5 83 -25z"/>
<path d="M3116 349 c-3 -8 -4 -70 -3 -139 l2 -125 25 0 c20 0 26 6 28 28 3 22
8 27 32 27 23 0 33 -7 45 -30 11 -21 23 -30 40 -30 29 0 28 -2 14 37 -8 25 -7
36 10 64 30 50 27 102 -8 141 -27 30 -34 33 -105 36 -58 3 -77 1 -80 -9z m152
-66 c30 -41 -4 -93 -63 -93 l-35 0 0 54 c0 34 5 56 13 60 21 9 71 -3 85 -21z"/>
<path d="M3503 340 c-87 -52 -83 -198 6 -245 96 -49 211 19 211 127 0 106
-125 174 -217 118z m123 -45 c12 -8 27 -28 34 -45 37 -89 -90 -160 -150 -83
-59 75 39 183 116 128z"/>
</g>
</svg>
